<svg width="42" height="42" viewBox="0 0 42 42" fill="none" xmlns="http://www.w3.org/2000/svg">
<path d="M31.1503 35L31.1503 34H31.1503V35ZM10.8503 35L10.8503 36H10.8503V35ZM36.7504 29.4L37.7504 29.4L37.7504 29.4L36.7504 29.4ZM36.3689 33.0889L37.2599 33.5429L37.2599 33.5429L36.3689 33.0889ZM34.8386 34.6185L35.2926 35.5095L35.2926 35.5095L34.8386 34.6185ZM34.8386 10.8815L35.2926 9.99047L35.2926 9.99047L34.8386 10.8815ZM36.7504 16.1L35.7504 16.1L35.7504 16.1L36.7504 16.1ZM36.3689 12.4111L35.4779 12.8651L35.4779 12.8651L36.3689 12.4111ZM5.63148 33.0889L6.52248 32.635L6.52248 32.635L5.63148 33.0889ZM7.16064 34.6185L7.61464 33.7275L7.61464 33.7275L7.16064 34.6185ZM20.2933 11.2071C20.6838 11.5976 21.317 11.5976 21.7075 11.2071C22.0981 10.8166 22.0981 10.1834 21.7075 9.79289L20.2933 11.2071ZM17.8794 7.51579L18.4019 6.66315L18.4019 6.66315L17.8794 7.51579ZM16.8678 7.09671L17.1013 6.12434L16.8678 7.09671ZM6.25 29.4V10.5H4.25V29.4H6.25ZM5.25 11.5H31.15V9.5H5.25V11.5ZM31.1503 34H10.8503V36H31.1503V34ZM35.7504 29.4C35.7504 30.3966 35.7496 31.0839 35.706 31.6173C35.6634 32.1391 35.5848 32.4251 35.4779 32.635L37.2599 33.5429C37.5344 33.0041 37.6466 32.4257 37.6994 31.7802C37.7512 31.1464 37.7504 30.3636 37.7504 29.4L35.7504 29.4ZM31.1503 36C32.1139 36 32.8966 36.0008 33.5303 35.949C34.1757 35.8962 34.7539 35.784 35.2926 35.5095L34.3846 33.7275C34.1747 33.8344 33.8889 33.913 33.3673 33.9556C32.834 33.9992 32.1469 34 31.1503 34L31.1503 36ZM35.4779 32.635C35.2384 33.1049 34.8555 33.4875 34.3846 33.7275L35.2926 35.5095C36.1389 35.0783 36.8282 34.3901 37.2599 33.5429L35.4779 32.635ZM31.15 11.5C32.1466 11.5 32.8338 11.5008 33.3672 11.5444C33.8888 11.587 34.1747 11.6655 34.3846 11.7725L35.2926 9.99047C34.7538 9.71595 34.1755 9.60375 33.5301 9.55101C32.8963 9.49922 32.1136 9.5 31.15 9.5V11.5ZM37.7504 16.1C37.7504 15.1364 37.7512 14.3536 37.6994 13.7198C37.6466 13.0743 37.5344 12.4959 37.2599 11.9571L35.4779 12.8651C35.5848 13.0749 35.6634 13.3609 35.706 13.8827C35.7496 14.4161 35.7504 15.1034 35.7504 16.1L37.7504 16.1ZM34.3846 11.7725C34.8555 12.0124 35.2384 12.3951 35.4779 12.8651L37.2599 11.9571C36.8283 11.1099 36.1389 10.4217 35.2926 9.99047L34.3846 11.7725ZM4.25 29.4C4.25 30.3636 4.24922 31.1464 4.30101 31.7802C4.35374 32.4257 4.46593 33.0041 4.74047 33.5429L6.52248 32.635C6.41555 32.4251 6.337 32.1391 6.29436 31.6173C6.25078 31.0839 6.25 30.3966 6.25 29.4H4.25ZM10.8503 34C9.85377 34 9.16627 33.9992 8.63261 33.9556C8.11056 33.913 7.82447 33.8344 7.61464 33.7275L6.70665 35.5095C7.24551 35.784 7.82417 35.8962 8.46975 35.949C9.10373 36.0008 9.88673 36 10.8503 36L10.8503 34ZM4.74047 33.5429C5.17179 34.3894 5.85971 35.0779 6.70665 35.5095L7.61464 33.7275C7.14445 33.4879 6.76228 33.1056 6.52248 32.635L4.74047 33.5429ZM35.7504 16.1L35.7504 29.4L37.7504 29.4L37.7504 16.1L35.7504 16.1ZM21.7075 9.79289L19.8477 7.93309L18.4335 9.3473L20.2933 11.2071L21.7075 9.79289ZM15.1804 6H8.75V8H15.1804V6ZM8.75 6C6.26472 6 4.25 8.01472 4.25 10.5H6.25C6.25 9.11929 7.36929 8 8.75 8V6ZM19.8477 7.93309C19.276 7.36135 18.8795 6.95581 18.4019 6.66315L17.3569 8.36843C17.5857 8.50866 17.7946 8.70838 18.4335 9.3473L19.8477 7.93309ZM15.1804 8C16.0841 8 16.3734 8.00643 16.6344 8.06908L17.1013 6.12434C16.5566 5.99357 15.9888 6 15.1804 6V8ZM18.4019 6.66315C17.9994 6.41649 17.5606 6.2346 17.1013 6.12434L16.6344 8.06908C16.8893 8.13029 17.1331 8.23129 17.3569 8.36843L18.4019 6.66315Z" fill="white"/>
</svg>
