<svg width="52" height="52" viewBox="0 0 52 52" fill="none" xmlns="http://www.w3.org/2000/svg">
<path d="M43.3333 11.9167L44.3333 11.9167V11.9167L43.3333 11.9167ZM43.3333 40.0833L42.3333 40.0833V40.0833L43.3333 40.0833ZM39.8453 6.58326L40.0404 5.60248L40.0404 5.60248L39.8453 6.58326ZM43.2508 9.98804L42.27 10.1831L42.27 10.1831L43.2508 9.98804ZM32.5832 9.98804L31.6024 9.79295L31.6024 9.79295L32.5832 9.98804ZM35.9869 6.58326L36.182 7.56405L36.182 7.56405L35.9869 6.58326ZM37.9157 45.5L37.9157 46.5L37.9157 45.5ZM35.9869 45.4167L35.7918 46.3975L35.7918 46.3975L35.9869 45.4167ZM32.5832 42.0121L33.564 41.817L33.564 41.817L32.5832 42.0121ZM39.8453 45.4167L39.6503 44.4359L39.6503 44.4359L39.8453 45.4167ZM43.2508 42.0121L44.2316 42.2071L44.2316 42.2071L43.2508 42.0121ZM19.5 11.9167L20.5 11.9167V11.9167L19.5 11.9167ZM19.5 40.0833L18.5 40.0833V40.0833L19.5 40.0833ZM16.012 6.58326L16.2071 5.60248L16.2071 5.60248L16.012 6.58326ZM19.4174 9.98804L18.4367 10.1831L18.4367 10.1831L19.4174 9.98804ZM8.74989 9.98804L7.7691 9.79295L7.7691 9.79295L8.74989 9.98804ZM12.1536 6.58326L12.3487 7.56405L12.3487 7.56405L12.1536 6.58326ZM14.0823 45.5L14.0823 46.5L14.0823 45.5ZM12.1536 45.4167L11.9585 46.3975L11.9585 46.3975L12.1536 45.4167ZM8.74989 42.0121L9.73068 41.817L9.73068 41.817L8.74989 42.0121ZM16.012 45.4167L15.8169 44.4359L15.8169 44.4359L16.012 45.4167ZM19.4174 42.0121L20.3982 42.2071L20.3982 42.2071L19.4174 42.0121ZM33.5 40.0833V11.9167H31.5V40.0833H33.5ZM42.3333 11.9167V40.0833H44.3333V11.9167H42.3333ZM37.9166 7.5C38.9713 7.5 39.3526 7.50484 39.6503 7.56405L40.0404 5.60248C39.5009 5.49516 38.8754 5.5 37.9166 5.5V7.5ZM44.3333 11.9167C44.3333 10.9592 44.3389 10.3328 44.2316 9.79295L42.27 10.1831C42.3291 10.4805 42.3333 10.8606 42.3333 11.9167L44.3333 11.9167ZM39.6503 7.56405C40.9728 7.82711 42.007 8.86104 42.27 10.1831L44.2316 9.79295C43.8107 7.67705 42.1559 6.02327 40.0404 5.60248L39.6503 7.56405ZM33.5 11.9167C33.5 10.862 33.5048 10.4808 33.564 10.1831L31.6024 9.79295C31.4951 10.3325 31.5 10.9578 31.5 11.9167H33.5ZM37.9166 5.5C36.9579 5.5 36.3314 5.49515 35.7918 5.60248L36.182 7.56405C36.4797 7.50485 36.8619 7.5 37.9166 7.5V5.5ZM33.564 10.1831C33.8271 8.86047 34.8601 7.827 36.182 7.56405L35.7918 5.60248C33.6758 6.02338 32.0232 7.67761 31.6024 9.79295L33.564 10.1831ZM37.9157 44.5C36.861 44.5 36.4797 44.4951 36.182 44.4359L35.7918 46.3975C36.3314 46.5048 36.9568 46.5 37.9157 46.5L37.9157 44.5ZM31.5 40.0833C31.5 41.0422 31.4951 41.6676 31.6024 42.2071L33.564 41.817C33.5048 41.5193 33.5 41.138 33.5 40.0833H31.5ZM36.182 44.4359C34.86 44.1729 33.8271 43.1396 33.564 41.817L31.6024 42.2071C32.0232 44.3225 33.6759 45.9766 35.7918 46.3975L36.182 44.4359ZM37.9157 46.5C38.8744 46.5 39.5009 46.5048 40.0404 46.3975L39.6503 44.4359C39.3526 44.4951 38.9704 44.5 37.9157 44.5L37.9157 46.5ZM42.3333 40.0833C42.3333 41.1394 42.3291 41.5196 42.27 41.817L44.2316 42.2071C44.3389 41.6673 44.3333 41.0408 44.3333 40.0833L42.3333 40.0833ZM40.0404 46.3975C42.1559 45.9767 43.8107 44.3231 44.2316 42.2071L42.27 41.817C42.007 43.139 40.9728 44.1728 39.6503 44.4359L40.0404 46.3975ZM9.66663 40.0833V11.9167H7.66663V40.0833H9.66663ZM18.5 11.9167V40.0833H20.5V11.9167H18.5ZM14.0833 7.5C15.138 7.5 15.5193 7.50484 15.8169 7.56405L16.2071 5.60248C15.6676 5.49516 15.0421 5.5 14.0833 5.5V7.5ZM20.5 11.9167C20.5 10.9592 20.5056 10.3328 20.3982 9.79295L18.4367 10.1831C18.4958 10.4805 18.5 10.8606 18.5 11.9167L20.5 11.9167ZM15.8169 7.56405C17.1394 7.82711 18.1737 8.86104 18.4367 10.1831L20.3982 9.79295C19.9773 7.67705 18.3226 6.02327 16.2071 5.60248L15.8169 7.56405ZM9.66663 11.9167C9.66663 10.862 9.67147 10.4808 9.73067 10.1831L7.7691 9.79295C7.66178 10.3325 7.66663 10.9578 7.66663 11.9167H9.66663ZM14.0833 5.5C13.1245 5.5 12.4981 5.49515 11.9585 5.60248L12.3487 7.56405C12.6463 7.50485 13.0285 7.5 14.0833 7.5V5.5ZM9.73067 10.1831C9.99377 8.86047 11.0267 7.827 12.3487 7.56405L11.9585 5.60248C9.84248 6.02338 8.18987 7.67761 7.7691 9.79295L9.73067 10.1831ZM14.0823 44.5C13.0277 44.5 12.6463 44.4951 12.3487 44.4359L11.9585 46.3975C12.4981 46.5048 13.1235 46.5 14.0823 46.5L14.0823 44.5ZM7.66663 40.0833C7.66663 41.0422 7.66178 41.6676 7.7691 42.2071L9.73068 41.817C9.67147 41.5193 9.66663 41.138 9.66663 40.0833H7.66663ZM12.3487 44.4359C11.0267 44.1729 9.99376 43.1396 9.73068 41.817L7.7691 42.2071C8.18988 44.3225 9.84253 45.9766 11.9585 46.3975L12.3487 44.4359ZM14.0823 46.5C15.0411 46.5 15.6676 46.5048 16.2071 46.3975L15.8169 44.4359C15.5193 44.4951 15.1371 44.5 14.0823 44.5L14.0823 46.5ZM18.5 40.0833C18.5 41.1394 18.4958 41.5196 18.4367 41.817L20.3982 42.2071C20.5056 41.6673 20.5 41.0408 20.5 40.0833L18.5 40.0833ZM16.2071 46.3975C18.3225 45.9767 19.9773 44.3231 20.3982 42.2071L18.4367 41.817C18.1737 43.139 17.1395 44.1728 15.8169 44.4359L16.2071 46.3975Z" fill="white"/>
</svg>
