<svg width="52" height="52" viewBox="0 0 52 52" fill="none" xmlns="http://www.w3.org/2000/svg">
<path d="M15.9305 40.6143L15.46 39.732L15.46 39.732L15.9305 40.6143ZM37.5972 29.0588L38.0678 29.9411L38.0678 29.9411L37.5972 29.0588ZM37.5972 22.9411L38.0678 22.0588L38.0678 22.0588L37.5972 22.9411ZM15.9305 11.3856L15.46 12.2679L15.46 12.2679L15.9305 11.3856ZM40.6956 26.9077L39.7877 26.4887L39.7877 26.4887L40.6956 26.9077ZM40.6956 25.0922L39.7877 25.5112L39.7877 25.5112L40.6956 25.0922ZM11.2344 40.9781L10.4195 41.5577L11.2344 40.9781ZM12.7229 41.8711L12.8508 40.8793L12.8508 40.8793L12.7229 41.8711ZM11.2344 11.0219L10.4195 10.4423L10.4195 10.4423L11.2344 11.0219ZM12.7229 10.1289L12.8508 11.1207L12.7229 10.1289ZM9.83337 14.4444V37.5555H11.8334V14.4444H9.83337ZM16.4011 41.4967L38.0678 29.9411L37.1266 28.1764L15.46 39.732L16.4011 41.4967ZM38.0678 22.0588L16.4011 10.5032L15.46 12.2679L37.1266 23.8235L38.0678 22.0588ZM38.0678 29.9411C38.9814 29.4539 39.7284 29.0566 40.2795 28.6945C40.8219 28.3381 41.3296 27.9206 41.6036 27.3267L39.7877 26.4887C39.7566 26.556 39.6461 26.7175 39.1812 27.023C38.7249 27.3228 38.0752 27.6705 37.1266 28.1764L38.0678 29.9411ZM37.1266 23.8235C38.0752 24.3294 38.7249 24.6771 39.1812 24.9769C39.6461 25.2824 39.7566 25.4439 39.7877 25.5112L41.6036 24.6732C41.3296 24.0793 40.8219 23.6619 40.2795 23.3054C39.7284 22.9433 38.9814 22.546 38.0678 22.0588L37.1266 23.8235ZM41.6036 27.3267C41.9921 26.4848 41.9921 25.5151 41.6036 24.6732L39.7877 25.5112C39.9308 25.8214 39.9308 26.1786 39.7877 26.4887L41.6036 27.3267ZM9.83337 37.5555C9.83337 38.4887 9.83237 39.2578 9.88768 39.8612C9.9427 40.4616 10.0633 41.0569 10.4195 41.5577L12.0493 40.3985C12.0045 40.3354 11.9246 40.1722 11.8793 39.6787C11.8344 39.1882 11.8334 38.5279 11.8334 37.5555H9.83337ZM15.46 39.732C14.6018 40.1897 14.019 40.4995 13.5652 40.6907C13.1088 40.883 12.9275 40.8892 12.8508 40.8793L12.5949 42.8629C13.2045 42.9415 13.7863 42.7678 14.3417 42.5338C14.8999 42.2986 15.5778 41.9358 16.4011 41.4967L15.46 39.732ZM10.4195 41.5577C10.9311 42.277 11.7196 42.75 12.5949 42.8629L12.8508 40.8793C12.5282 40.8377 12.2378 40.6635 12.0493 40.3985L10.4195 41.5577ZM11.8334 14.4444C11.8334 13.4719 11.8344 12.8117 11.8793 12.3212C11.9246 11.8278 12.0044 11.6646 12.0493 11.6015L10.4195 10.4423C10.0633 10.9431 9.94271 11.5383 9.88768 12.1387C9.83237 12.742 9.83337 13.5111 9.83337 14.4444H11.8334ZM16.4011 10.5032C15.5778 10.0641 14.8998 9.7013 14.3417 9.46617C13.7862 9.23218 13.2044 9.0585 12.5949 9.13711L12.8508 11.1207C12.9275 11.1108 13.1088 11.117 13.5653 11.3093C14.019 11.5005 14.6018 11.8102 15.46 12.2679L16.4011 10.5032ZM12.0493 11.6015C12.2378 11.3366 12.5282 11.1623 12.8508 11.1207L12.5949 9.13711C11.7196 9.25001 10.9311 9.72302 10.4195 10.4423L12.0493 11.6015Z" fill="white"/>
</svg>
